<mxfile host="app.diagrams.net" agent="Mozilla/5.0 (Windows NT 10.0; Win64; x64) AppleWebKit/537.36 (KHTML, like Gecko) Chrome/130.0.0.0 Safari/537.36 Edg/130.0.0.0" version="24.8.4">
  <diagram name="PÃ¡gina-1" id="55ItQyAqCMN41FfydaCx">
    <mxGraphModel dx="441" dy="877" grid="1" gridSize="10" guides="1" tooltips="1" connect="1" arrows="1" fold="1" page="1" pageScale="1" pageWidth="827" pageHeight="1169" math="0" shadow="0">
      <root>
        <mxCell id="0" />
        <mxCell id="1" parent="0" />
        <mxCell id="TQz6KtkameOzr9aK55Y5-1" value="Start" style="strokeWidth=2;html=1;shape=mxgraph.flowchart.terminator;whiteSpace=wrap;fontSize=14;" vertex="1" parent="1">
          <mxGeometry x="60" y="120" width="100" height="60" as="geometry" />
        </mxCell>
        <mxCell id="TQz6KtkameOzr9aK55Y5-4" value="No" style="edgeStyle=orthogonalEdgeStyle;rounded=0;orthogonalLoop=1;jettySize=auto;html=1;exitX=1;exitY=0.5;exitDx=0;exitDy=0;exitPerimeter=0;entryX=1;entryY=0.5;entryDx=0;entryDy=0;fontSize=14;" edge="1" parent="1" source="TQz6KtkameOzr9aK55Y5-2" target="TQz6KtkameOzr9aK55Y5-3">
          <mxGeometry relative="1" as="geometry">
            <mxPoint x="250" y="270" as="targetPoint" />
            <Array as="points">
              <mxPoint x="200" y="410" />
              <mxPoint x="200" y="260" />
            </Array>
          </mxGeometry>
        </mxCell>
        <mxCell id="TQz6KtkameOzr9aK55Y5-2" value="Distance &amp;gt; 0?" style="strokeWidth=2;html=1;shape=mxgraph.flowchart.decision;whiteSpace=wrap;fontSize=14;" vertex="1" parent="1">
          <mxGeometry x="50" y="350" width="120" height="120" as="geometry" />
        </mxCell>
        <mxCell id="TQz6KtkameOzr9aK55Y5-3" value="&lt;div style=&quot;font-size: 14px;&quot;&gt;&lt;span style=&quot;background-color: initial; font-size: 14px;&quot;&gt;&lt;br style=&quot;font-size: 14px;&quot;&gt;&lt;/span&gt;&lt;/div&gt;&lt;div style=&quot;font-size: 14px;&quot;&gt;&lt;span style=&quot;background-color: initial; font-size: 14px;&quot;&gt;&lt;br style=&quot;font-size: 14px;&quot;&gt;&lt;/span&gt;&lt;/div&gt;&lt;div style=&quot;font-size: 14px;&quot;&gt;&lt;span style=&quot;background-color: initial; font-size: 14px;&quot;&gt;Write distance number&lt;/span&gt;&lt;/div&gt;" style="html=1;strokeWidth=2;shape=manualInput;whiteSpace=wrap;rounded=1;size=26;arcSize=11;fontSize=14;" vertex="1" parent="1">
          <mxGeometry x="60" y="220" width="100" height="80" as="geometry" />
        </mxCell>
        <mxCell id="TQz6KtkameOzr9aK55Y5-5" style="edgeStyle=orthogonalEdgeStyle;rounded=0;orthogonalLoop=1;jettySize=auto;html=1;entryX=0.5;entryY=0;entryDx=0;entryDy=0;entryPerimeter=0;fontSize=14;" edge="1" parent="1" source="TQz6KtkameOzr9aK55Y5-3" target="TQz6KtkameOzr9aK55Y5-2">
          <mxGeometry relative="1" as="geometry" />
        </mxCell>
        <mxCell id="TQz6KtkameOzr9aK55Y5-6" style="edgeStyle=orthogonalEdgeStyle;rounded=0;orthogonalLoop=1;jettySize=auto;html=1;exitX=0.5;exitY=1;exitDx=0;exitDy=0;exitPerimeter=0;entryX=0.5;entryY=0.15;entryDx=0;entryDy=0;entryPerimeter=0;fontSize=14;" edge="1" parent="1" source="TQz6KtkameOzr9aK55Y5-1" target="TQz6KtkameOzr9aK55Y5-3">
          <mxGeometry relative="1" as="geometry" />
        </mxCell>
        <mxCell id="TQz6KtkameOzr9aK55Y5-7" value="&lt;div style=&quot;font-size: 14px;&quot;&gt;&lt;span style=&quot;background-color: initial; font-size: 14px;&quot;&gt;&lt;br style=&quot;font-size: 14px;&quot;&gt;&lt;/span&gt;&lt;/div&gt;&lt;div style=&quot;font-size: 14px;&quot;&gt;&lt;span style=&quot;background-color: initial; font-size: 14px;&quot;&gt;&lt;br style=&quot;font-size: 14px;&quot;&gt;&lt;/span&gt;&lt;/div&gt;&lt;div style=&quot;font-size: 14px;&quot;&gt;&lt;span style=&quot;background-color: initial; font-size: 14px;&quot;&gt;Write distance&#39;s unit&lt;/span&gt;&lt;/div&gt;" style="html=1;strokeWidth=2;shape=manualInput;whiteSpace=wrap;rounded=1;size=26;arcSize=11;fontSize=14;" vertex="1" parent="1">
          <mxGeometry x="60" y="505" width="100" height="80" as="geometry" />
        </mxCell>
        <mxCell id="TQz6KtkameOzr9aK55Y5-8" value="Yes" style="edgeStyle=orthogonalEdgeStyle;rounded=0;orthogonalLoop=1;jettySize=auto;html=1;exitX=0.5;exitY=1;exitDx=0;exitDy=0;exitPerimeter=0;entryX=0.49;entryY=0.188;entryDx=0;entryDy=0;entryPerimeter=0;fontSize=14;" edge="1" parent="1" source="TQz6KtkameOzr9aK55Y5-2" target="TQz6KtkameOzr9aK55Y5-7">
          <mxGeometry relative="1" as="geometry" />
        </mxCell>
        <mxCell id="TQz6KtkameOzr9aK55Y5-12" value="No" style="edgeStyle=orthogonalEdgeStyle;rounded=0;orthogonalLoop=1;jettySize=auto;html=1;entryX=1;entryY=0.5;entryDx=0;entryDy=0;exitX=1;exitY=0.5;exitDx=0;exitDy=0;exitPerimeter=0;fontSize=14;" edge="1" parent="1" source="TQz6KtkameOzr9aK55Y5-9" target="TQz6KtkameOzr9aK55Y5-7">
          <mxGeometry relative="1" as="geometry" />
        </mxCell>
        <mxCell id="TQz6KtkameOzr9aK55Y5-23" value="Yes" style="edgeStyle=orthogonalEdgeStyle;rounded=0;orthogonalLoop=1;jettySize=auto;html=1;fontSize=14;" edge="1" parent="1" source="TQz6KtkameOzr9aK55Y5-9" target="TQz6KtkameOzr9aK55Y5-22">
          <mxGeometry relative="1" as="geometry" />
        </mxCell>
        <mxCell id="TQz6KtkameOzr9aK55Y5-9" value="Distance&#39;s unit&amp;nbsp;&lt;div style=&quot;font-size: 14px;&quot;&gt;is one of&amp;nbsp;&lt;span style=&quot;background-color: initial; font-size: 14px;&quot;&gt;mm, cm,&amp;nbsp;&lt;/span&gt;&lt;span style=&quot;background-color: initial; font-size: 14px;&quot;&gt;dm,&lt;/span&gt;&lt;/div&gt;&lt;div style=&quot;font-size: 14px;&quot;&gt;&lt;span style=&quot;background-color: initial; font-size: 14px;&quot;&gt;m, dam, hm, km, in,&lt;/span&gt;&lt;/div&gt;&lt;div style=&quot;font-size: 14px;&quot;&gt;&lt;span style=&quot;background-color: initial; font-size: 14px;&quot;&gt;ft, yd, mi?&lt;/span&gt;&lt;/div&gt;" style="strokeWidth=2;html=1;shape=mxgraph.flowchart.decision;whiteSpace=wrap;fontSize=14;" vertex="1" parent="1">
          <mxGeometry x="20" y="630" width="180" height="180" as="geometry" />
        </mxCell>
        <mxCell id="TQz6KtkameOzr9aK55Y5-11" value="Yes" style="edgeStyle=orthogonalEdgeStyle;rounded=0;orthogonalLoop=1;jettySize=auto;html=1;entryX=0.5;entryY=0;entryDx=0;entryDy=0;entryPerimeter=0;fontSize=14;" edge="1" parent="1" source="TQz6KtkameOzr9aK55Y5-7" target="TQz6KtkameOzr9aK55Y5-9">
          <mxGeometry relative="1" as="geometry" />
        </mxCell>
        <mxCell id="TQz6KtkameOzr9aK55Y5-13" value="No" style="edgeStyle=orthogonalEdgeStyle;rounded=0;orthogonalLoop=1;jettySize=auto;html=1;exitX=1;exitY=0.5;exitDx=0;exitDy=0;exitPerimeter=0;entryX=1;entryY=0.5;entryDx=0;entryDy=0;fontSize=14;" edge="1" parent="1" source="TQz6KtkameOzr9aK55Y5-14" target="TQz6KtkameOzr9aK55Y5-15">
          <mxGeometry relative="1" as="geometry">
            <mxPoint x="574" y="270" as="targetPoint" />
            <Array as="points">
              <mxPoint x="524" y="410" />
              <mxPoint x="524" y="260" />
            </Array>
          </mxGeometry>
        </mxCell>
        <mxCell id="TQz6KtkameOzr9aK55Y5-14" value="Speed &amp;gt; 0?" style="strokeWidth=2;html=1;shape=mxgraph.flowchart.decision;whiteSpace=wrap;fontSize=14;" vertex="1" parent="1">
          <mxGeometry x="350" y="360" width="100" height="100" as="geometry" />
        </mxCell>
        <mxCell id="TQz6KtkameOzr9aK55Y5-15" value="&lt;div style=&quot;font-size: 14px;&quot;&gt;&lt;span style=&quot;background-color: initial; font-size: 14px;&quot;&gt;&lt;br style=&quot;font-size: 14px;&quot;&gt;&lt;/span&gt;&lt;/div&gt;&lt;div style=&quot;font-size: 14px;&quot;&gt;&lt;span style=&quot;background-color: initial; font-size: 14px;&quot;&gt;&lt;br style=&quot;font-size: 14px;&quot;&gt;&lt;/span&gt;&lt;/div&gt;&lt;div style=&quot;font-size: 14px;&quot;&gt;&lt;span style=&quot;background-color: initial; font-size: 14px;&quot;&gt;Write speed number&lt;/span&gt;&lt;/div&gt;" style="html=1;strokeWidth=2;shape=manualInput;whiteSpace=wrap;rounded=1;size=26;arcSize=11;fontSize=14;" vertex="1" parent="1">
          <mxGeometry x="350" y="220" width="100" height="80" as="geometry" />
        </mxCell>
        <mxCell id="TQz6KtkameOzr9aK55Y5-16" style="edgeStyle=orthogonalEdgeStyle;rounded=0;orthogonalLoop=1;jettySize=auto;html=1;entryX=0.5;entryY=0;entryDx=0;entryDy=0;entryPerimeter=0;fontSize=14;" edge="1" parent="1" source="TQz6KtkameOzr9aK55Y5-15" target="TQz6KtkameOzr9aK55Y5-14">
          <mxGeometry relative="1" as="geometry" />
        </mxCell>
        <mxCell id="TQz6KtkameOzr9aK55Y5-17" value="&lt;div style=&quot;font-size: 14px;&quot;&gt;&lt;span style=&quot;background-color: initial; font-size: 14px;&quot;&gt;&lt;br style=&quot;font-size: 14px;&quot;&gt;&lt;/span&gt;&lt;/div&gt;&lt;div style=&quot;font-size: 14px;&quot;&gt;&lt;span style=&quot;background-color: initial; font-size: 14px;&quot;&gt;&lt;br style=&quot;font-size: 14px;&quot;&gt;&lt;/span&gt;&lt;/div&gt;&lt;div style=&quot;font-size: 14px;&quot;&gt;&lt;span style=&quot;background-color: initial; font-size: 14px;&quot;&gt;Write speed&#39;s unit&lt;/span&gt;&lt;/div&gt;" style="html=1;strokeWidth=2;shape=manualInput;whiteSpace=wrap;rounded=1;size=26;arcSize=11;fontSize=14;" vertex="1" parent="1">
          <mxGeometry x="350" y="505" width="100" height="80" as="geometry" />
        </mxCell>
        <mxCell id="TQz6KtkameOzr9aK55Y5-18" value="Yes" style="edgeStyle=orthogonalEdgeStyle;rounded=0;orthogonalLoop=1;jettySize=auto;html=1;exitX=0.5;exitY=1;exitDx=0;exitDy=0;exitPerimeter=0;entryX=0.49;entryY=0.188;entryDx=0;entryDy=0;entryPerimeter=0;fontSize=14;" edge="1" parent="1" source="TQz6KtkameOzr9aK55Y5-14" target="TQz6KtkameOzr9aK55Y5-17">
          <mxGeometry relative="1" as="geometry" />
        </mxCell>
        <mxCell id="TQz6KtkameOzr9aK55Y5-44" value="No" style="edgeStyle=orthogonalEdgeStyle;rounded=0;orthogonalLoop=1;jettySize=auto;html=1;entryX=1;entryY=0.5;entryDx=0;entryDy=0;exitX=1;exitY=0.5;exitDx=0;exitDy=0;exitPerimeter=0;fontSize=14;" edge="1" parent="1" source="TQz6KtkameOzr9aK55Y5-20" target="TQz6KtkameOzr9aK55Y5-17">
          <mxGeometry relative="1" as="geometry" />
        </mxCell>
        <mxCell id="TQz6KtkameOzr9aK55Y5-20" value="Speed&#39;s unit&amp;nbsp;&lt;div style=&quot;font-size: 14px;&quot;&gt;distance&amp;nbsp;&lt;span style=&quot;background-color: initial; font-size: 14px;&quot;&gt;part&amp;nbsp;&lt;/span&gt;&lt;/div&gt;&lt;div style=&quot;font-size: 14px;&quot;&gt;&lt;span style=&quot;background-color: initial; font-size: 14px;&quot;&gt;=&amp;nbsp;&lt;/span&gt;&lt;/div&gt;&lt;div style=&quot;font-size: 14px;&quot;&gt;&lt;span style=&quot;background-color: initial; font-size: 14px;&quot;&gt;Distance unit&lt;/span&gt;&lt;span style=&quot;background-color: initial; font-size: 14px;&quot;&gt;?&lt;/span&gt;&lt;/div&gt;" style="strokeWidth=2;html=1;shape=mxgraph.flowchart.decision;whiteSpace=wrap;fontSize=14;" vertex="1" parent="1">
          <mxGeometry x="260" y="640" width="160" height="160" as="geometry" />
        </mxCell>
        <mxCell id="TQz6KtkameOzr9aK55Y5-22" value="1" style="ellipse;whiteSpace=wrap;html=1;strokeWidth=2;fontSize=14;" vertex="1" parent="1">
          <mxGeometry x="90" y="850" width="40" height="40" as="geometry" />
        </mxCell>
        <mxCell id="TQz6KtkameOzr9aK55Y5-24" value="1" style="ellipse;whiteSpace=wrap;html=1;strokeWidth=2;fontSize=14;" vertex="1" parent="1">
          <mxGeometry x="380" y="140" width="40" height="40" as="geometry" />
        </mxCell>
        <mxCell id="TQz6KtkameOzr9aK55Y5-25" value="Yes" style="edgeStyle=orthogonalEdgeStyle;rounded=0;orthogonalLoop=1;jettySize=auto;html=1;exitX=0.5;exitY=1;exitDx=0;exitDy=0;entryX=0.5;entryY=0.188;entryDx=0;entryDy=0;entryPerimeter=0;fontSize=14;" edge="1" parent="1" source="TQz6KtkameOzr9aK55Y5-24" target="TQz6KtkameOzr9aK55Y5-15">
          <mxGeometry relative="1" as="geometry" />
        </mxCell>
        <mxCell id="TQz6KtkameOzr9aK55Y5-26" value="2" style="ellipse;whiteSpace=wrap;html=1;strokeWidth=2;fontSize=14;" vertex="1" parent="1">
          <mxGeometry x="380" y="920" width="40" height="40" as="geometry" />
        </mxCell>
        <mxCell id="TQz6KtkameOzr9aK55Y5-38" value="Yes" style="edgeStyle=orthogonalEdgeStyle;rounded=0;orthogonalLoop=1;jettySize=auto;html=1;exitX=0.5;exitY=1;exitDx=0;exitDy=0;exitPerimeter=0;entryX=0.5;entryY=0;entryDx=0;entryDy=0;fontSize=14;" edge="1" parent="1" source="TQz6KtkameOzr9aK55Y5-28" target="TQz6KtkameOzr9aK55Y5-26">
          <mxGeometry relative="1" as="geometry">
            <Array as="points">
              <mxPoint x="490" y="900" />
              <mxPoint x="400" y="900" />
            </Array>
          </mxGeometry>
        </mxCell>
        <mxCell id="TQz6KtkameOzr9aK55Y5-39" value="No" style="edgeStyle=orthogonalEdgeStyle;rounded=0;orthogonalLoop=1;jettySize=auto;html=1;exitX=0.5;exitY=0;exitDx=0;exitDy=0;exitPerimeter=0;entryX=1;entryY=0.5;entryDx=0;entryDy=0;fontSize=14;" edge="1" parent="1" source="TQz6KtkameOzr9aK55Y5-28" target="TQz6KtkameOzr9aK55Y5-17">
          <mxGeometry relative="1" as="geometry" />
        </mxCell>
        <mxCell id="TQz6KtkameOzr9aK55Y5-28" value="Speed&#39;s unit&amp;nbsp;&lt;div style=&quot;font-size: 14px;&quot;&gt;time&amp;nbsp;&lt;span style=&quot;background-color: initial; font-size: 14px;&quot;&gt;part&amp;nbsp;&lt;/span&gt;&lt;span style=&quot;background-color: initial; font-size: 14px;&quot;&gt;is one&lt;/span&gt;&lt;/div&gt;&lt;div style=&quot;font-size: 14px;&quot;&gt;&lt;span style=&quot;background-color: initial; font-size: 14px;&quot;&gt;of h, m, s&lt;/span&gt;&lt;span style=&quot;background-color: initial; font-size: 14px;&quot;&gt;?&lt;/span&gt;&lt;/div&gt;" style="strokeWidth=2;html=1;shape=mxgraph.flowchart.decision;whiteSpace=wrap;fontSize=14;" vertex="1" parent="1">
          <mxGeometry x="420" y="750" width="140" height="140" as="geometry" />
        </mxCell>
        <mxCell id="TQz6KtkameOzr9aK55Y5-46" value="Yes" style="edgeStyle=orthogonalEdgeStyle;rounded=0;orthogonalLoop=1;jettySize=auto;html=1;entryX=0.5;entryY=0;entryDx=0;entryDy=0;fontSize=14;" edge="1" parent="1" source="TQz6KtkameOzr9aK55Y5-29" target="TQz6KtkameOzr9aK55Y5-45">
          <mxGeometry relative="1" as="geometry" />
        </mxCell>
        <mxCell id="TQz6KtkameOzr9aK55Y5-29" value="2" style="ellipse;whiteSpace=wrap;html=1;strokeWidth=2;fontSize=14;" vertex="1" parent="1">
          <mxGeometry x="640" y="140" width="40" height="40" as="geometry" />
        </mxCell>
        <mxCell id="TQz6KtkameOzr9aK55Y5-41" value="Yes" style="edgeStyle=orthogonalEdgeStyle;rounded=0;orthogonalLoop=1;jettySize=auto;html=1;entryX=0.5;entryY=0;entryDx=0;entryDy=0;entryPerimeter=0;fontSize=14;" edge="1" parent="1" source="TQz6KtkameOzr9aK55Y5-17" target="TQz6KtkameOzr9aK55Y5-20">
          <mxGeometry relative="1" as="geometry" />
        </mxCell>
        <mxCell id="TQz6KtkameOzr9aK55Y5-43" value="Yes" style="edgeStyle=orthogonalEdgeStyle;rounded=0;orthogonalLoop=1;jettySize=auto;html=1;entryX=0;entryY=0.5;entryDx=0;entryDy=0;entryPerimeter=0;fontSize=14;" edge="1" parent="1" source="TQz6KtkameOzr9aK55Y5-20" target="TQz6KtkameOzr9aK55Y5-28">
          <mxGeometry relative="1" as="geometry" />
        </mxCell>
        <mxCell id="TQz6KtkameOzr9aK55Y5-50" value="" style="edgeStyle=orthogonalEdgeStyle;rounded=0;orthogonalLoop=1;jettySize=auto;html=1;entryX=0.497;entryY=0.129;entryDx=0;entryDy=0;entryPerimeter=0;fontSize=14;" edge="1" parent="1" source="TQz6KtkameOzr9aK55Y5-45" target="TQz6KtkameOzr9aK55Y5-52">
          <mxGeometry relative="1" as="geometry">
            <mxPoint x="660" y="370" as="targetPoint" />
          </mxGeometry>
        </mxCell>
        <mxCell id="TQz6KtkameOzr9aK55Y5-45" value="Divide distance number&amp;nbsp;&lt;div style=&quot;font-size: 14px;&quot;&gt;by speed number&lt;/div&gt;" style="rounded=1;whiteSpace=wrap;html=1;absoluteArcSize=1;arcSize=14;strokeWidth=2;fontSize=14;" vertex="1" parent="1">
          <mxGeometry x="580" y="230" width="160" height="60" as="geometry" />
        </mxCell>
        <mxCell id="TQz6KtkameOzr9aK55Y5-52" value="&lt;div style=&quot;font-size: 14px;&quot;&gt;&lt;span style=&quot;background-color: initial; font-size: 14px;&quot;&gt;&lt;br style=&quot;font-size: 14px;&quot;&gt;&lt;/span&gt;&lt;/div&gt;&lt;div style=&quot;font-size: 14px;&quot;&gt;&lt;span style=&quot;background-color: initial; font-size: 14px;&quot;&gt;&lt;br style=&quot;font-size: 14px;&quot;&gt;&lt;/span&gt;&lt;/div&gt;&lt;div style=&quot;font-size: 14px;&quot;&gt;&lt;span style=&quot;background-color: initial; font-size: 14px;&quot;&gt;Write result number&lt;/span&gt;&lt;/div&gt;&lt;div style=&quot;font-size: 14px;&quot;&gt;&lt;span style=&quot;background-color: initial; font-size: 14px;&quot;&gt;followed by the speed&#39;s unit&amp;nbsp;&lt;/span&gt;&lt;/div&gt;&lt;div style=&quot;font-size: 14px;&quot;&gt;&lt;span style=&quot;background-color: initial; font-size: 14px;&quot;&gt;time part&lt;/span&gt;&lt;/div&gt;" style="html=1;strokeWidth=2;shape=manualInput;whiteSpace=wrap;rounded=1;size=26;arcSize=11;fontSize=14;" vertex="1" parent="1">
          <mxGeometry x="600" y="365" width="120" height="140" as="geometry" />
        </mxCell>
        <mxCell id="TQz6KtkameOzr9aK55Y5-53" value="End" style="strokeWidth=2;html=1;shape=mxgraph.flowchart.terminator;whiteSpace=wrap;fontSize=14;" vertex="1" parent="1">
          <mxGeometry x="610" y="585" width="100" height="60" as="geometry" />
        </mxCell>
        <mxCell id="TQz6KtkameOzr9aK55Y5-54" style="edgeStyle=orthogonalEdgeStyle;rounded=0;orthogonalLoop=1;jettySize=auto;html=1;entryX=0.5;entryY=0;entryDx=0;entryDy=0;entryPerimeter=0;fontSize=14;" edge="1" parent="1" source="TQz6KtkameOzr9aK55Y5-52" target="TQz6KtkameOzr9aK55Y5-53">
          <mxGeometry relative="1" as="geometry" />
        </mxCell>
      </root>
    </mxGraphModel>
  </diagram>
</mxfile>
